<?xml version="1.0" encoding="UTF-8"?>
<svg width="490px" height="490px" viewBox="0 0 490 490" version="1.1" xmlns="http://www.w3.org/2000/svg" xmlns:xlink="http://www.w3.org/1999/xlink">
    <!-- Generator: Sketch 51.2 (57519) - http://www.bohemiancoding.com/sketch -->
    <title>Rectangle</title>
    <desc>Created with Sketch.</desc>
    <defs></defs>
    <g id="Page-1" stroke="none" stroke-width="1" fill="none" fill-rule="evenodd">
        <rect id="Rectangle" x="0" y="0" width="490" height="490"></rect>
        <g id="4chan-seeklogo.com" transform="translate(52.000000, 50.000000)">
            <path d="M25.7,37.6 C25.7,11.8 109.5,-23.5 149.4,122.9 C149.4,122.9 21.6,147.8 4,119.2 C-13.6,90.6 50,74.4 50,64.2 C50,54 25.7,63.4 25.7,37.6 Z" id="Shape" stroke="#FF2D20" stroke-width="37.5776"></path>
            <path d="M25.7,37.6 C25.7,11.8 109.5,-23.5 149.4,122.9 C149.4,122.9 21.6,147.8 4,119.2 C-13.6,90.6 50,74.4 50,64.2 C50,54 25.7,63.4 25.7,37.6 Z" id="Shape" stroke="#FFFFFF" stroke-width="14.0916"></path>
            <path d="M337.4,24.9 C363.2,24.9 398.5,108.7 252.1,148.6 C252.1,148.6 227.2,20.8 255.8,3.2 C284.4,-14.4 300.6,49.2 310.8,49.2 C321,49.2 311.5,24.9 337.4,24.9 Z" id="Shape" stroke="#FF2D20" stroke-width="37.5776"></path>
            <path d="M337.4,24.9 C363.2,24.9 398.5,108.7 252.1,148.6 C252.1,148.6 227.2,20.8 255.8,3.2 C284.4,-14.4 300.6,49.2 310.8,49.2 C321,49.2 311.5,24.9 337.4,24.9 Z" id="Shape" stroke="#FFFFFF" stroke-width="14.0916"></path>
            <path d="M346,353.4 C344.4,379.2 258.7,409.3 227.7,260.7 C227.7,260.7 356.8,243.6 372.6,273.2 C388.5,302.8 324,315.2 323.4,325.3 C322.8,335.6 347.5,327.7 346,353.4 Z" id="Shape" stroke="#FF2D20" stroke-width="37.5776"></path>
            <path d="M346,353.4 C344.4,379.2 258.7,409.3 227.7,260.7 C227.7,260.7 356.8,243.6 372.6,273.2 C388.5,302.8 324,315.2 323.4,325.3 C322.8,335.6 347.5,327.7 346,353.4 Z" id="Shape" stroke="#FFFFFF" stroke-width="14.0916"></path>
            <path d="M56.6,372.8 C30.9,375.6 -13.1,296.1 128.2,240.7 C128.2,240.7 166.6,365.1 140.1,385.7 C113.6,406.3 90.6,344.8 80.5,345.9 C70.4,347 82.3,370.1 56.6,372.8 Z" id="Shape" stroke="#FF2D20" stroke-width="37.5776"></path>
            <path d="M56.6,372.8 C30.9,375.6 -13.1,296.1 128.2,240.7 C128.2,240.7 166.6,365.1 140.1,385.7 C113.6,406.3 90.6,344.8 80.5,345.9 C70.4,347 82.3,370.1 56.6,372.8 Z" id="Shape" stroke="#FFFFFF" stroke-width="14.0916"></path>
        </g>
    </g>
</svg>