<?xml version="1.0" encoding="UTF-8"?>
<svg width="1710px" height="490px" viewBox="0 0 1710 490" version="1.1" xmlns="http://www.w3.org/2000/svg" xmlns:xlink="http://www.w3.org/1999/xlink">
    <!-- Generator: Sketch 51.2 (57519) - http://www.bohemiancoding.com/sketch -->
    <title>Rectangle</title>
    <desc>Created with Sketch.</desc>
    <defs></defs>
    <g id="Page-1" stroke="none" stroke-width="1" fill="none" fill-rule="evenodd">
        <g id="logo">
            <rect id="Rectangle" x="0" y="0" width="1710" height="490"></rect>
            <g id="4chan-seeklogo.com" transform="translate(52.000000, 50.000000)">
                <path d="M25.7,37.6 C25.7,11.8 109.5,-23.5 149.4,122.9 C149.4,122.9 21.6,147.8 4,119.2 C-13.6,90.6 50,74.4 50,64.2 C50,54 25.7,63.4 25.7,37.6 Z" id="Shape" stroke="#FF2D20" stroke-width="37.5776"></path>
                <path d="M25.7,37.6 C25.7,11.8 109.5,-23.5 149.4,122.9 C149.4,122.9 21.6,147.8 4,119.2 C-13.6,90.6 50,74.4 50,64.2 C50,54 25.7,63.4 25.7,37.6 Z" id="Shape" stroke="#FFFFFF" stroke-width="14.0916"></path>
                <path d="M337.4,24.9 C363.2,24.9 398.5,108.7 252.1,148.6 C252.1,148.6 227.2,20.8 255.8,3.2 C284.4,-14.4 300.6,49.2 310.8,49.2 C321,49.2 311.5,24.9 337.4,24.9 Z" id="Shape" stroke="#FF2D20" stroke-width="37.5776"></path>
                <path d="M337.4,24.9 C363.2,24.9 398.5,108.7 252.1,148.6 C252.1,148.6 227.2,20.8 255.8,3.2 C284.4,-14.4 300.6,49.2 310.8,49.2 C321,49.2 311.5,24.9 337.4,24.9 Z" id="Shape" stroke="#FFFFFF" stroke-width="14.0916"></path>
                <path d="M346,353.4 C344.4,379.2 258.7,409.3 227.7,260.7 C227.7,260.7 356.8,243.6 372.6,273.2 C388.5,302.8 324,315.2 323.4,325.3 C322.8,335.6 347.5,327.7 346,353.4 Z" id="Shape" stroke="#FF2D20" stroke-width="37.5776"></path>
                <path d="M346,353.4 C344.4,379.2 258.7,409.3 227.7,260.7 C227.7,260.7 356.8,243.6 372.6,273.2 C388.5,302.8 324,315.2 323.4,325.3 C322.8,335.6 347.5,327.7 346,353.4 Z" id="Shape" stroke="#FFFFFF" stroke-width="14.0916"></path>
                <path d="M56.6,372.8 C30.9,375.6 -13.1,296.1 128.2,240.7 C128.2,240.7 166.6,365.1 140.1,385.7 C113.6,406.3 90.6,344.8 80.5,345.9 C70.4,347 82.3,370.1 56.6,372.8 Z" id="Shape" stroke="#FF2D20" stroke-width="37.5776"></path>
                <path d="M56.6,372.8 C30.9,375.6 -13.1,296.1 128.2,240.7 C128.2,240.7 166.6,365.1 140.1,385.7 C113.6,406.3 90.6,344.8 80.5,345.9 C70.4,347 82.3,370.1 56.6,372.8 Z" id="Shape" stroke="#FFFFFF" stroke-width="14.0916"></path>
            </g>
        </g>
        <g id="Logo.min" transform="translate(565.000000, 140.000000)" fill="#FF2D20">
            <path d="M34.7888235,0.646470588 L34.7888235,176.123529 L98.7335294,176.123529 L98.7335294,206.390588 L0.744117647,206.390588 L0.744117647,0.646470588 L34.7888235,0.646470588 Z M218.914706,87.9376471 L218.914706,69.4317647 L251.177647,69.4317647 L251.177647,206.390588 L218.907059,206.390588 L218.907059,187.869412 C214.571176,194.728824 208.4,200.12 200.401176,204.035294 C192.417647,207.950588 184.372941,209.908235 176.282353,209.908235 C165.821176,209.908235 156.247059,207.996471 147.567647,204.180588 C139.118026,200.527194 131.50974,195.175626 125.215294,188.458235 C118.992909,181.788886 114.075133,174.012782 110.716471,165.532353 C107.227028,156.742012 105.466611,147.36091 105.531765,137.903529 C105.531765,128.306471 107.26,119.145294 110.716471,110.42 C114.053144,101.887332 118.972416,94.0621613 125.215294,87.3564706 C131.510161,80.6376457 139.118206,75.2836436 147.567647,71.6264706 C156.247059,67.8029412 165.821176,65.8911765 176.282353,65.8911765 C184.372941,65.8911765 192.417647,67.8564706 200.408824,71.7794118 C208.4,75.6947059 214.571176,81.0858824 218.914706,87.9376471 Z M215.947647,154.658235 C217.93382,149.299216 218.938873,143.626366 218.914706,137.911176 C218.914706,132.022941 217.920588,126.440588 215.947647,121.148824 C214.094057,116.058793 211.282838,111.370832 207.665882,107.338235 C204.046169,103.372603 199.667081,100.174101 194.788235,97.9323529 C189.748824,95.5847059 184.174118,94.4070588 178.056471,94.4070588 C171.938824,94.4070588 166.41,95.5847059 161.477647,97.9323529 C156.545294,100.287647 152.301176,103.422941 148.752941,107.338235 C145.1444,111.351247 142.377649,116.047443 140.616471,121.148824 C138.722224,126.530421 137.770235,132.19838 137.802353,137.903529 C137.802353,143.784118 138.735294,149.374118 140.616471,154.650588 C142.375589,159.755206 145.142513,164.454296 148.752941,168.468824 C152.333969,172.411207 156.658252,175.607642 161.477647,177.874706 C166.41,180.23 171.938824,181.4 178.056471,181.4 C184.174118,181.4 189.756471,180.23 194.788235,177.882353 C199.668245,175.642589 204.047705,172.443816 207.665882,168.476471 C211.284436,164.442166 214.09579,159.751384 215.947647,154.658235 Z M276.634706,206.382941 L276.634706,69.4241176 L364.262353,69.4241176 L364.262353,100.945294 L308.897647,100.945294 L308.897647,206.382941 L276.634706,206.382941 Z M481.193529,87.9376471 L481.193529,69.4317647 L513.456471,69.4317647 L513.456471,206.390588 L481.185882,206.390588 L481.185882,187.869412 C476.842353,194.728824 470.678824,200.12 462.68,204.035294 C454.696471,207.950588 446.651765,209.908235 438.561176,209.908235 C428.092353,209.908235 418.525882,207.996471 409.846471,204.180588 C401.396849,200.527194 393.788564,195.175626 387.494118,188.458235 C381.271733,181.788886 376.353957,174.012782 372.995294,165.532353 C369.505852,156.742012 367.745435,147.36091 367.810588,137.903529 C367.810588,128.306471 369.531176,119.145294 372.995294,110.42 C376.331968,101.887332 381.25124,94.0621613 387.494118,87.3564706 C393.788985,80.6376457 401.39703,75.2836436 409.846471,71.6264706 C418.525882,67.8029412 428.092353,65.8911765 438.561176,65.8911765 C446.651765,65.8911765 454.696471,67.8564706 462.687647,71.7794118 C470.678824,75.6947059 476.842353,81.0858824 481.193529,87.9376471 Z M637.391745,4.64647059 L637.391745,34.023467 L573.447039,34.023467 L573.447039,180.123529 L637.391745,180.123529 L637.391745,210.390588 L539.402333,210.390588 L539.402333,4.64647059 L637.391745,4.64647059 Z M695.014706,73.6464706 L781.371765,73.6464706 L781.371765,210.605294 L749.108824,210.605294 L749.108824,105.167647 L695.014706,105.167647 L695.014706,210.382941 L662.744118,210.382941 L662.744118,4.64647059 L695.014706,4.64647059 L695.014706,73.6464706 Z M478.226471,154.658235 C476.37232,159.751984 473.558345,164.442808 469.937059,168.476471 C466.318881,172.443816 461.939422,175.642589 457.059412,177.882353 C452.035294,180.23 446.452941,181.4 440.335294,181.4 C434.217647,181.4 428.688824,180.23 423.756471,177.874706 C418.937075,175.607642 414.612792,172.411207 411.031765,168.468824 C407.418599,164.454966 404.649047,159.75583 402.887647,154.650588 C401.006471,149.374118 400.073529,143.784118 400.073529,137.903529 C400.041411,132.19838 400.9934,126.530421 402.887647,121.148824 C404.651107,116.04682 407.420486,111.350578 411.031765,107.338235 C414.58,103.422941 418.824118,100.287647 423.756471,97.9323529 C428.688824,95.5847059 434.217647,94.4070588 440.335294,94.4070588 C446.452941,94.4070588 452.027647,95.5847059 457.059412,97.9323529 C461.938257,100.174101 466.317345,103.372603 469.937059,107.338235 C473.556747,111.370191 476.370587,116.058194 478.226471,121.148824 C480.191765,126.440588 481.185882,132.022941 481.185882,137.911176 C481.212496,143.6259 480.210037,149.298735 478.226471,154.658235 Z M920.108824,77.1870588 L952.371765,77.1870588 L952.371765,214.145882 L920.101176,214.145882 L920.101176,195.624706 C915.757647,202.484118 909.594118,207.875294 901.595294,211.790588 C893.611765,215.705882 885.567059,217.663529 877.476471,217.663529 C867.007647,217.663529 857.441176,215.751765 848.761765,211.935882 C840.312144,208.282489 832.703858,202.93092 826.409412,196.213529 C820.187027,189.54418 815.269251,181.768077 811.910588,173.287647 C808.421146,164.497306 806.660729,155.116204 806.725882,145.658824 C806.725882,136.061765 808.446471,126.900588 811.910588,118.175294 C815.247262,109.642626 820.166534,101.817455 826.409412,95.1117647 C832.704279,88.3929398 840.312324,83.0389377 848.761765,79.3817647 C857.441176,75.5582353 867.007647,73.6464706 877.476471,73.6464706 C885.567059,73.6464706 893.611765,75.6117647 901.602941,79.5347059 C909.594118,83.45 915.757647,88.8411765 920.108824,95.6929412 L920.108824,77.1870588 Z M920.837277,145.150588 C920.837277,139.262353 919.843159,133.68 917.877865,128.388235 C916.021982,123.297606 913.208142,118.609603 909.588454,114.577647 C905.96874,110.612015 901.589652,107.413513 896.710807,105.171765 C891.679042,102.824118 886.104336,101.646471 879.986689,101.646471 C873.869042,101.646471 868.340218,102.824118 863.407865,105.171765 C858.475512,107.527059 854.231395,110.662353 850.683159,114.577647 C847.07188,118.58999 844.302502,123.286232 842.539042,128.388235 C840.644795,133.769833 839.692806,139.437791 839.724924,145.142941 C839.724924,151.023529 840.657865,156.613529 842.539042,161.89 C844.300442,166.995242 847.069993,171.694378 850.683159,175.708235 C854.264187,179.650619 858.58847,182.847054 863.407865,185.114118 C868.340218,187.469412 873.869042,188.639412 879.986689,188.639412 C886.104336,188.639412 891.686689,187.469412 896.710807,185.121765 C901.590816,182.882001 905.970276,179.683227 909.588454,175.715882 C913.209739,171.68222 916.023715,166.991395 917.877865,161.897647 C919.861431,156.538147 920.863891,150.865312 920.837277,145.150588 Z M982.116471,217.605294 L982.116471,80.6464706 L1069.74412,80.6464706 L1069.74412,112.167647 L1014.37941,112.167647 L1014.37941,217.605294 L982.116471,217.605294 Z M1069.74412,217.382941 L1069.74412,80.4241176 L1102.01471,80.4241176 L1102.01471,217.382941 L1069.74412,217.382941 Z" id="Shape"></path>
        </g>
    </g>
</svg>